<svg xmlns="http://www.w3.org/2000/svg"><symbol id="ico-caret-down" viewBox="0 0 10 6"><path d="M5 6 0 1.12 1.15 0 5 3.73 8.84 0 10 1.12z"/></symbol><symbol id="ico-caret-left" viewBox="0 0 6 10"><path d="M4.88 0 6 1.16 2.27 5 6 8.85 4.88 10 0 5Z"/></symbol><symbol id="ico-caret-right" viewBox="0 0 5.98 10.01"><path d="m6 5-4.88 5L0 8.85 3.73 5 0 1.16 1.12 0z"/></symbol><symbol id="ico-facebook" viewBox="0 0 16 16"><path d="M15.12 0H.89A.89.89 0 0 0 0 .89v14.23a.89.89 0 0 0 .89.88h7.67V9.81H6.47V7.39h2.08V5.61a2.91 2.91 0 0 1 3.11-3.19 16.56 16.56 0 0 1 1.86.1v2.15h-1.28c-1 0-1.19.47-1.19 1.17v1.55h2.39l-.31 2.42h-2.08V16h4.07a.89.89 0 0 0 .88-.88V.89a.88.88 0 0 0-.88-.89z"/></symbol><symbol id="ico-info" viewBox="0 0 14 14"><path fill-rule="evenodd" clip-rule="evenodd" d="M14 7A7 7 0 1 1 0 7a7 7 0 0 1 14 0ZM8.055 3.26v1.918h-2.11V3.26h2.11Zm0 7.671V6.138h-2.11v4.795h2.11Z"/></symbol><symbol id="ico-instagram" viewBox="0 0 16 16"><path d="M16 4.7a5.85 5.85 0 0 0-.37-1.94A4 4 0 0 0 13.24.42 5.85 5.85 0 0 0 11.3.05C10.44 0 10.17 0 8 0S5.56 0 4.7.05a5.85 5.85 0 0 0-1.94.37A4 4 0 0 0 .42 2.76 5.85 5.85 0 0 0 .05 4.7C0 5.56 0 5.83 0 8s0 2.44.05 3.3a5.85 5.85 0 0 0 .37 1.94 4 4 0 0 0 2.34 2.34A5.85 5.85 0 0 0 4.7 16H8c2.17 0 2.44 0 3.3-.05a5.85 5.85 0 0 0 1.94-.37 4 4 0 0 0 2.34-2.34A5.85 5.85 0 0 0 16 11.3c0-.86.05-1.13.05-3.3S16 5.56 16 4.7zm-1.44 6.53a4.58 4.58 0 0 1-.28 1.49 2.56 2.56 0 0 1-1.51 1.51 4.58 4.58 0 0 1-1.49.28c-.84 0-1.09.05-3.23.05s-2.39 0-3.23-.05a4.58 4.58 0 0 1-1.49-.28 2.42 2.42 0 0 1-.92-.59 2.42 2.42 0 0 1-.59-.92 4.58 4.58 0 0 1-.28-1.49c0-.84-.05-1.09-.05-3.23s0-2.39.05-3.23a4.58 4.58 0 0 1 .28-1.49 2.42 2.42 0 0 1 .59-.92 2.42 2.42 0 0 1 .92-.59 4.58 4.58 0 0 1 1.49-.28c.84 0 1.09-.05 3.23-.05s2.39 0 3.23.05a4.58 4.58 0 0 1 1.49.28 2.42 2.42 0 0 1 .92.59 2.42 2.42 0 0 1 .59.92 4.58 4.58 0 0 1 .28 1.49c0 .84.05 1.09.05 3.23s-.06 2.39-.1 3.23zM8 10.59A2.6 2.6 0 1 1 10.6 8 2.59 2.59 0 0 1 8 10.59zM8 4a4 4 0 1 0 4 4 4 4 0 0 0-4-4zm5 0a1 1 0 1 1-1-1 1 1 0 0 1 1 1"/></symbol><symbol id="ico-linkedin" viewBox="0 0 25.31 24.07"><path d="M5.75 7.82v16.25H.32V7.82zm.35-5a2.59 2.59 0 0 1-.83 2A3.12 3.12 0 0 1 3 5.61 3 3 0 0 1 .82 4.8a2.69 2.69 0 0 1-.82-2 2.64 2.64 0 0 1 .85-2A3.11 3.11 0 0 1 3.06 0a3 3 0 0 1 2.19.8 2.73 2.73 0 0 1 .84 2zm19.21 12v9.31h-5.42v-8.75a4.73 4.73 0 0 0-.67-2.7 2.35 2.35 0 0 0-2.08-1 2.67 2.67 0 0 0-1.74.57 3.5 3.5 0 0 0-1 1.4 3.94 3.94 0 0 0-.23 1.35v9.07H8.75V7.81h5.42v2.36a7.18 7.18 0 0 1 .67-.92 6.91 6.91 0 0 1 .93-.85 4.32 4.32 0 0 1 1.43-.71 6.48 6.48 0 0 1 1.89-.25 5.86 5.86 0 0 1 4.5 1.86 7.8 7.8 0 0 1 1.71 5.45z"/></symbol><symbol id="ico-tiktok" viewBox="0 0 14.51 16.93"><path d="M10.57 0c.27 2.4 1.61 3.83 3.94 4v2.7a6.1 6.1 0 0 1-3.9-1.15v5.05c0 6.42-7 8.42-9.81 3.83-1.8-3-.7-8.16 5.1-8.36v2.84a7.82 7.82 0 0 0-1.35.33 2.31 2.31 0 0 0-1.82 2.7c.39 2.76 5.46 3.58 5-1.82V0h2.84Z"/></symbol><symbol id="ico-youtube" viewBox="0 0 22 16"><path d="M7.86 11.2V4.8L14.14 8zm13.68-8.7a2.79 2.79 0 0 0-1.94-2C17.88 0 11 0 11 0S4.12 0 2.4.48a2.79 2.79 0 0 0-1.94 2A30.83 30.83 0 0 0 0 8a30.83 30.83 0 0 0 .46 5.5 2.79 2.79 0 0 0 1.94 2c1.72.5 8.6.5 8.6.5s6.88 0 8.6-.48a2.79 2.79 0 0 0 1.94-2A30.83 30.83 0 0 0 22 8a30.83 30.83 0 0 0-.46-5.5z"/></symbol></svg>